<?xml version="1.0" encoding="UTF-8" standalone="no"?>
<!-- Created with Inkscape (http://www.inkscape.org/) -->

<svg
   xmlns:dc="http://purl.org/dc/elements/1.1/"
   xmlns:cc="http://creativecommons.org/ns#"
   xmlns:rdf="http://www.w3.org/1999/02/22-rdf-syntax-ns#"
   xmlns:svg="http://www.w3.org/2000/svg"
   xmlns="http://www.w3.org/2000/svg"
   xmlns:sodipodi="http://sodipodi.sourceforge.net/DTD/sodipodi-0.dtd"
   xmlns:inkscape="http://www.inkscape.org/namespaces/inkscape"
   width="210mm"
   height="297mm"
   viewBox="0 0 744.09448819 1052.3622047"
   id="svg4497"
   version="1.1"
   inkscape:version="0.91 r13725"
   sodipodi:docname="cat.svg">
  <defs
     id="defs4499" />
  <sodipodi:namedview
     id="base"
     pagecolor="#ffffff"
     bordercolor="#666666"
     borderopacity="1.0"
     inkscape:pageopacity="0.0"
     inkscape:pageshadow="2"
     inkscape:zoom="0.35"
     inkscape:cx="-380.34478"
     inkscape:cy="520"
     inkscape:document-units="px"
     inkscape:current-layer="layer1"
     showgrid="false"
     inkscape:window-width="2560"
     inkscape:window-height="1525"
     inkscape:window-x="-9"
     inkscape:window-y="-9"
     inkscape:window-maximized="1" />
  <metadata
     id="metadata4502">
    <rdf:RDF>
      <cc:Work
         rdf:about="">
        <dc:format>image/svg+xml</dc:format>
        <dc:type
           rdf:resource="http://purl.org/dc/dcmitype/StillImage" />
        <dc:title />
      </cc:Work>
    </rdf:RDF>
  </metadata>
  <g
     inkscape:label="Calque 1"
     inkscape:groupmode="layer"
     id="layer1">
    <g
       id="g4507"
       transform="matrix(0.16514161,0,0,0.16514161,75.527057,309.92128)"
       style="stroke:#0000ff;stroke-width:20;stroke-miterlimit:4;stroke-dasharray:none;stroke-opacity:1">
      <path
         d="m 1567.08,2253.99 c 174,-44.45 287.58,-279.1 179.38,-450.78"
         id="curve_0-91"
         inkscape:connector-curvature="0"
         style="fill:none;stroke:#0000ff;stroke-width:20;stroke-miterlimit:4;stroke-dasharray:none;stroke-opacity:1" />
      <path
         d="m 1746.46,1803.21 c -200.29,-120.17 -400.21,162.86 -353.54,319.37"
         id="curve_1-6"
         inkscape:connector-curvature="0"
         style="fill:none;stroke:#0000ff;stroke-width:20;stroke-miterlimit:4;stroke-dasharray:none;stroke-opacity:1" />
      <path
         d="m 407.08,1760.82 c 115.468,214.68 229.303,288.22 421.747,404.43"
         id="curve_2"
         inkscape:connector-curvature="0"
         style="fill:none;stroke:#0000ff;stroke-width:20;stroke-miterlimit:4;stroke-dasharray:none;stroke-opacity:1" />
      <path
         d="m 2277.36,2183.76 c 100.94,-94.56 207.5,-204.14 211.44,-288.33"
         id="curve_3"
         inkscape:connector-curvature="0"
         style="fill:none;stroke:#0000ff;stroke-width:20;stroke-miterlimit:4;stroke-dasharray:none;stroke-opacity:1" />
      <path
         d="m 774.975,2428.21 c -91.094,95.2 -308.972,191.14 -424.57,53.31"
         id="curve_4-99"
         inkscape:connector-curvature="0"
         style="fill:none;stroke:#0000ff;stroke-width:20;stroke-miterlimit:4;stroke-dasharray:none;stroke-opacity:1" />
      <path
         d="m 649.777,621.998 c 181.059,-52.872 336.596,112.723 434.613,189.21 228.91,178.636 8.58,534.562 -246.649,410.322"
         id="curve_5"
         inkscape:connector-curvature="0"
         style="fill:none;stroke:#0000ff;stroke-width:20;stroke-miterlimit:4;stroke-dasharray:none;stroke-opacity:1" />
      <path
         d="m 1603.95,2363.71 c 333.05,-11.95 535.8,-242.45 693.08,-446.4"
         id="curve_7"
         inkscape:connector-curvature="0"
         style="fill:none;stroke:#0000ff;stroke-width:20;stroke-miterlimit:4;stroke-dasharray:none;stroke-opacity:1" />
      <path
         d="m 3105.06,258.02 -56.15,96.645"
         id="curve_8"
         inkscape:connector-curvature="0"
         style="fill:none;stroke:#0000ff;stroke-width:20;stroke-miterlimit:4;stroke-dasharray:none;stroke-opacity:1" />
      <path
         d="M 758.605,1351.11 C 614.369,1160.26 555.499,859.111 649.777,621.998"
         id="curve_9-5"
         inkscape:connector-curvature="0"
         style="fill:none;stroke:#0000ff;stroke-width:20;stroke-miterlimit:4;stroke-dasharray:none;stroke-opacity:1" />
      <path
         d="m 3173.08,2138.93 c 187.59,96.11 291.5,-127.34 246.78,-236 -93.32,-226.71 -185.79,-448.23 -203.1,-719.52 Q 3205.26,988.795 3093.45,789.351 C 3033.49,682.406 2884.14,675.235 2745.76,688.418"
         id="curve_10-6"
         inkscape:connector-curvature="0"
         style="fill:none;stroke:#0000ff;stroke-width:20;stroke-miterlimit:4;stroke-dasharray:none;stroke-opacity:1" />
      <path
         d="m 1342.6,2461.09 c -82.46,150.89 -289.82,115.05 -324.6,-55.64"
         id="curve_14-9"
         inkscape:connector-curvature="0"
         style="fill:none;stroke:#0000ff;stroke-width:20;stroke-miterlimit:4;stroke-dasharray:none;stroke-opacity:1" />
      <path
         d="m 238.875,2234.84 c 169.921,-126.11 552.459,-113.67 536.1,193.37"
         id="curve_15-1"
         inkscape:connector-curvature="0"
         style="fill:none;stroke:#0000ff;stroke-width:20;stroke-miterlimit:4;stroke-dasharray:none;stroke-opacity:1" />
      <path
         d="m 677.91,2069.48 -95.764,100.86"
         id="curve_16-62"
         inkscape:connector-curvature="0"
         style="fill:none;stroke:#0000ff;stroke-width:20;stroke-miterlimit:4;stroke-dasharray:none;stroke-opacity:1" />
      <path
         d="m 2987.81,1334.43 c -38.63,257.52 -141.31,476.74 -304.24,574.32"
         id="curve_17-3"
         inkscape:connector-curvature="0"
         style="fill:none;stroke:#0000ff;stroke-width:20;stroke-miterlimit:4;stroke-dasharray:none;stroke-opacity:1" />
      <path
         d="m 2199.74,2348.48 c -194.16,104.3 -83.06,277.87 63.63,206.52"
         id="curve_18-7"
         inkscape:connector-curvature="0"
         style="fill:none;stroke:#0000ff;stroke-width:20;stroke-miterlimit:4;stroke-dasharray:none;stroke-opacity:1" />
      <path
         d="m 1544.55,2241.22 c 48.6,-65.19 141.4,-129.25 107.21,-233.1"
         id="curve_19-7"
         inkscape:connector-curvature="0"
         style="fill:none;stroke:#0000ff;stroke-width:20;stroke-miterlimit:4;stroke-dasharray:none;stroke-opacity:1" />
      <path
         d="m 1651.76,2008.12 c -106.77,-79.42 -173.28,57.42 -225.8,145.7"
         id="curve_20-5"
         inkscape:connector-curvature="0"
         style="fill:none;stroke:#0000ff;stroke-width:20;stroke-miterlimit:4;stroke-dasharray:none;stroke-opacity:1" />
      <path
         d="m 2263.37,2555 q 59,-0.59 106.81,-46.51"
         id="curve_21-8"
         inkscape:connector-curvature="0"
         style="fill:none;stroke:#0000ff;stroke-width:20;stroke-miterlimit:4;stroke-dasharray:none;stroke-opacity:1" />
      <path
         d="m 2628.14,1603.91 c 117.48,304.96 20.9,540.46 -37.54,770.45 q -34.08,110.41 -149.95,156.09 c -76.07,33.2 -129.53,-95.91 -27.99,-164.82"
         id="curve_22-1"
         inkscape:connector-curvature="0"
         style="fill:none;stroke:#0000ff;stroke-width:20;stroke-miterlimit:4;stroke-dasharray:none;stroke-opacity:1" />
      <path
         d="m 3426.24,2000.79 c -170.5,-298.32 -694.27,-168.14 -631.08,197.25 15.67,66.09 117.38,44.27 171.69,2.71"
         id="curve_25-0"
         inkscape:connector-curvature="0"
         style="fill:none;stroke:#0000ff;stroke-width:20;stroke-miterlimit:4;stroke-dasharray:none;stroke-opacity:1" />
      <path
         d="m 2860.09,121.487 q 139.16,64.555 188.82,233.178"
         id="curve_27-6"
         inkscape:connector-curvature="0"
         style="fill:none;stroke:#0000ff;stroke-width:20;stroke-miterlimit:4;stroke-dasharray:none;stroke-opacity:1" />
      <path
         d="m 2547.39,2279.32 c -69.93,-70.71 -201.79,-102.51 -287.73,-94.49"
         id="curve_28-2"
         inkscape:connector-curvature="0"
         style="fill:none;stroke:#0000ff;stroke-width:20;stroke-miterlimit:4;stroke-dasharray:none;stroke-opacity:1" />
      <path
         d="m 1254.12,2126.24 c 125.35,-90.61 290.83,91.84 133.24,226.49"
         id="curve_29-2"
         inkscape:connector-curvature="0"
         style="fill:none;stroke:#0000ff;stroke-width:20;stroke-miterlimit:4;stroke-dasharray:none;stroke-opacity:1" />
      <path
         d="m 947.584,2068.93 c -5.29,-72.95 -34.35,-143.13 11.197,-213.71"
         id="curve_30-2"
         inkscape:connector-curvature="0"
         style="fill:none;stroke:#0000ff;stroke-width:20;stroke-miterlimit:4;stroke-dasharray:none;stroke-opacity:1" />
      <path
         d="m 1090.83,2053.43 c 95.09,-119.93 -28.05,-312.47 -132.049,-198.21"
         id="curve_31-6"
         inkscape:connector-curvature="0"
         style="fill:none;stroke:#0000ff;stroke-width:20;stroke-miterlimit:4;stroke-dasharray:none;stroke-opacity:1" />
      <path
         d="m 238.875,2234.84 c -46.66,63.18 -91.729,126.95 -29.959,177.41"
         id="curve_32-7"
         inkscape:connector-curvature="0"
         style="fill:none;stroke:#0000ff;stroke-width:20;stroke-miterlimit:4;stroke-dasharray:none;stroke-opacity:1" />
      <path
         d="m 3212.25,1992.89 q -78,54.59 -39.17,146.04"
         id="curve_33-9"
         inkscape:connector-curvature="0"
         style="fill:none;stroke:#0000ff;stroke-width:20;stroke-miterlimit:4;stroke-dasharray:none;stroke-opacity:1" />
      <path
         d="m 2991.45,1861 q -80.93,-80.87 -126.4,-147.62"
         id="curve_34-4"
         inkscape:connector-curvature="0"
         style="fill:none;stroke:#0000ff;stroke-width:20;stroke-miterlimit:4;stroke-dasharray:none;stroke-opacity:1" />
      <path
         d="M 1112.46,2356.1 C 941.699,2525.83 770.529,2214.91 846.651,2116.37 q 75.014,-89.66 149.503,-16.79"
         id="curve_35-46"
         inkscape:connector-curvature="0"
         style="fill:none;stroke:#0000ff;stroke-width:20;stroke-miterlimit:4;stroke-dasharray:none;stroke-opacity:1" />
      <path
         d="M 909.266,2069.81 C 789.351,1938.89 817.844,1649.19 983.663,1598.44"
         id="curve_37-73"
         inkscape:connector-curvature="0"
         style="fill:none;stroke:#0000ff;stroke-width:20;stroke-miterlimit:4;stroke-dasharray:none;stroke-opacity:1" />
      <path
         d="M 2351.27,1102.55 C 2533.4,997.277 2550.98,752.666 2745.76,688.418"
         id="curve_38-8"
         inkscape:connector-curvature="0"
         style="fill:none;stroke:#0000ff;stroke-width:20;stroke-miterlimit:4;stroke-dasharray:none;stroke-opacity:1" />
      <path
         d="M 2745.76,688.418 Q 2944.23,437.839 2860.09,121.487"
         id="curve_39-10"
         inkscape:connector-curvature="0"
         style="fill:none;stroke:#0000ff;stroke-width:20;stroke-miterlimit:4;stroke-dasharray:none;stroke-opacity:1" />
      <path
         d="m 1971.93,2508.51 c -78.06,-167.49 20.92,-357.34 287.73,-323.68"
         id="curve_40-1"
         inkscape:connector-curvature="0"
         style="fill:none;stroke:#0000ff;stroke-width:20;stroke-miterlimit:4;stroke-dasharray:none;stroke-opacity:1" />
      <path
         d="m 3217.01,2156.23 q -119.45,135.39 -250.16,44.52"
         id="curve_41-7"
         inkscape:connector-curvature="0"
         style="fill:none;stroke:#0000ff;stroke-width:20;stroke-miterlimit:4;stroke-dasharray:none;stroke-opacity:1" />
      <path
         d="m 1145.89,2056.55 c 101.12,-164.26 69.02,-455.69 -162.227,-458.11"
         id="curve_42-5"
         inkscape:connector-curvature="0"
         style="fill:none;stroke:#0000ff;stroke-width:20;stroke-miterlimit:4;stroke-dasharray:none;stroke-opacity:1" />
      <path
         d="M 966.849,1246.11 C 1005.58,990.376 865.039,727.853 649.777,621.998"
         id="curve_43-98"
         inkscape:connector-curvature="0"
         style="fill:none;stroke:#0000ff;stroke-width:20;stroke-miterlimit:4;stroke-dasharray:none;stroke-opacity:1" />
      <path
         d="m 359.07,1604.87 c 42.152,85.79 153.997,158.92 210.941,228.26"
         id="curve_44-5"
         inkscape:connector-curvature="0"
         style="fill:none;stroke:#0000ff;stroke-width:20;stroke-miterlimit:4;stroke-dasharray:none;stroke-opacity:1" />
      <path
         d="m 416.55,1778.12 c 36.674,81.1 98.334,62.39 153.461,55.01"
         id="curve_45-3"
         inkscape:connector-curvature="0"
         style="fill:none;stroke:#0000ff;stroke-width:20;stroke-miterlimit:4;stroke-dasharray:none;stroke-opacity:1" />
      <path
         d="m 3066.02,752.797 c 43.79,-83.553 156.73,-183.713 101.43,-274.035"
         id="curve_46-9"
         inkscape:connector-curvature="0"
         style="fill:none;stroke:#0000ff;stroke-width:20;stroke-miterlimit:4;stroke-dasharray:none;stroke-opacity:1" />
      <path
         d="m 1177.94,965.504 c 309.97,-55.725 536.35,63.426 714.02,216.056"
         id="curve_47-0"
         inkscape:connector-curvature="0"
         style="fill:none;stroke:#0000ff;stroke-width:20;stroke-miterlimit:4;stroke-dasharray:none;stroke-opacity:1" />
      <path
         d="m 1891.96,1181.56 c -67.15,195.08 -10.51,407.1 205.31,413.25"
         id="curve_48-1"
         inkscape:connector-curvature="0"
         style="fill:none;stroke:#0000ff;stroke-width:20;stroke-miterlimit:4;stroke-dasharray:none;stroke-opacity:1" />
      <path
         d="m 2097.27,1594.81 c -22.02,147.79 24.45,318.62 199.76,322.5"
         id="curve_49-8"
         inkscape:connector-curvature="0"
         style="fill:none;stroke:#0000ff;stroke-width:20;stroke-miterlimit:4;stroke-dasharray:none;stroke-opacity:1" />
      <path
         d="m 368.892,2420.67 c 24.319,132.54 -231.392,68.94 -140.549,-55.81 63.504,-100.06 111.947,-71.55 144.837,-63.88"
         id="curve_50-0"
         inkscape:connector-curvature="0"
         style="fill:none;stroke:#0000ff;stroke-width:20;stroke-miterlimit:4;stroke-dasharray:none;stroke-opacity:1" />
      <path
         d="m 726.779,2469.89 c 114.685,69.76 165.871,-20.43 236.488,-72.9"
         id="curve_52-9"
         inkscape:connector-curvature="0"
         style="fill:none;stroke:#0000ff;stroke-width:20;stroke-miterlimit:4;stroke-dasharray:none;stroke-opacity:1" />
      <path
         d="m 1448.95,2257.58 c 123.89,-78.74 211.75,84.54 128.88,157.61"
         id="curve_53-9"
         inkscape:connector-curvature="0"
         style="fill:none;stroke:#0000ff;stroke-width:20;stroke-miterlimit:4;stroke-dasharray:none;stroke-opacity:1" />
      <path
         d="m 837.741,1221.53 c -58.704,191.42 -289.803,282.2 -472.675,184.05"
         id="curve_54-5"
         inkscape:connector-curvature="0"
         style="fill:none;stroke:#0000ff;stroke-width:20;stroke-miterlimit:4;stroke-dasharray:none;stroke-opacity:1" />
      <path
         d="m 1943.33,1538.16 c 59.71,-235.44 329.55,-335.23 544.43,-402.08"
         id="curve_55-19"
         inkscape:connector-curvature="0"
         style="fill:none;stroke:#0000ff;stroke-width:20;stroke-miterlimit:4;stroke-dasharray:none;stroke-opacity:1" />
      <path
         d="m 3101.22,499.175 q 70.94,-130.81 3.84,-241.155"
         id="curve_56-6"
         inkscape:connector-curvature="0"
         style="fill:none;stroke:#0000ff;stroke-width:20;stroke-miterlimit:4;stroke-dasharray:none;stroke-opacity:1" />
      <path
         d="m 3167.45,478.762 q -40.69,59.879 -66.23,20.413"
         id="curve_57-4"
         inkscape:connector-curvature="0"
         style="fill:none;stroke:#0000ff;stroke-width:20;stroke-miterlimit:4;stroke-dasharray:none;stroke-opacity:1" />
      <path
         d="m 359.07,1604.87 c 43.085,-31.85 63.282,22.37 113.626,-10.68"
         id="curve_58-1"
         inkscape:connector-curvature="0"
         style="fill:none;stroke:#0000ff;stroke-width:20;stroke-miterlimit:4;stroke-dasharray:none;stroke-opacity:1" />
      <path
         d="m 472.696,1594.19 q -88.701,-66.37 -107.63,-188.61"
         id="curve_59-0"
         inkscape:connector-curvature="0"
         style="fill:none;stroke:#0000ff;stroke-width:20;stroke-miterlimit:4;stroke-dasharray:none;stroke-opacity:1" />
      <path
         d="m 2101.59,2512.51 q -68.63,13.15 -129.66,-4"
         id="curve_60-1"
         inkscape:connector-curvature="0"
         style="fill:none;stroke:#0000ff;stroke-width:20;stroke-miterlimit:4;stroke-dasharray:none;stroke-opacity:1" />
      <path
         d="m 1891.96,1181.56 c 171.16,-78.04 448.31,-123.34 621.95,-33.24"
         id="curve_61-7"
         inkscape:connector-curvature="0"
         style="fill:none;stroke:#0000ff;stroke-width:20;stroke-miterlimit:4;stroke-dasharray:none;stroke-opacity:1" />
      <path
         d="m 2094.54,1707.01 c 230.42,-119.28 407.71,-271.88 419.37,-558.69"
         id="curve_62-54"
         inkscape:connector-curvature="0"
         style="fill:none;stroke:#0000ff;stroke-width:20;stroke-miterlimit:4;stroke-dasharray:none;stroke-opacity:1" />
      <path
         d="m 478.493,2353.41 c -33.339,-16.29 -97.24,35.89 -109.601,67.26"
         id="curve_63-90"
         inkscape:connector-curvature="0"
         style="fill:none;stroke:#0000ff;stroke-width:20;stroke-miterlimit:4;stroke-dasharray:none;stroke-opacity:1" />
      <path
         d="m 2966.85,2200.75 c -41.04,-49.78 -14.81,-107.09 21.79,-157.94"
         id="curve_64-5"
         inkscape:connector-curvature="0"
         style="fill:none;stroke:#0000ff;stroke-width:20;stroke-miterlimit:4;stroke-dasharray:none;stroke-opacity:1" />
      <path
         d="m 948.601,2242.07 c 1.08,-226.86 226.039,-229.44 305.519,-115.83"
         id="curve_65-6"
         inkscape:connector-curvature="0"
         style="fill:none;stroke:#0000ff;stroke-width:20;stroke-miterlimit:4;stroke-dasharray:none;stroke-opacity:1" />
      <path
         d="m 1304.5,2392.97 c 26.16,141.94 220.79,98.36 273.33,22.22"
         id="curve_66-7"
         inkscape:connector-curvature="0"
         style="fill:none;stroke:#0000ff;stroke-width:20;stroke-miterlimit:4;stroke-dasharray:none;stroke-opacity:1" />
      <path
         d="m 815.959,1516.73 c 193.061,-154.22 266.941,-86.34 405.371,-57.47"
         id="curve_67-7"
         inkscape:connector-curvature="0"
         style="fill:none;stroke:#0000ff;stroke-width:20;stroke-miterlimit:4;stroke-dasharray:none;stroke-opacity:1" />
      <path
         d="M 1942.43,1682.98 C 1844.38,1591.13 1773.87,1561.6 1599.48,1571.6"
         id="curve_68-9"
         inkscape:connector-curvature="0"
         style="fill:none;stroke:#0000ff;stroke-width:20;stroke-miterlimit:4;stroke-dasharray:none;stroke-opacity:1" />
    </g>
  </g>
</svg>
